<?xml version="1.0" encoding="UTF-8" standalone="no"?>
<!-- Created with Inkscape (http://www.inkscape.org/) -->

<svg
   xmlns:dc="http://purl.org/dc/elements/1.1/"
   xmlns:cc="http://creativecommons.org/ns#"
   xmlns:rdf="http://www.w3.org/1999/02/22-rdf-syntax-ns#"
   xmlns:svg="http://www.w3.org/2000/svg"
   xmlns="http://www.w3.org/2000/svg"
   xmlns:sodipodi="http://sodipodi.sourceforge.net/DTD/sodipodi-0.dtd"
   xmlns:inkscape="http://www.inkscape.org/namespaces/inkscape"
   width="210mm"
   height="297mm"
   viewBox="0 0 210 297"
   version="1.1"
   id="svg8"
   inkscape:version="0.92.3 (2405546, 2018-03-11)"
   sodipodi:docname="Tree.svg">
  <defs
     id="defs2"><marker
   inkscape:stockid="Arrow2Sstart"
   orient="auto"
   refY="0.0"
   refX="0.0"
   id="Arrow2Sstart"
   style="overflow:visible"
   inkscape:isstock="true">
  <path
     id="path1156"
     style="fill-rule:evenodd;stroke-width:0.625;stroke-linejoin:round;stroke:#ff6600;stroke-opacity:1;fill:#ff6600;fill-opacity:1"
     d="M 8.7185878,4.0337352 L -2.2072895,0.016013256 L 8.7185884,-4.0017078 C 6.9730900,-1.6296469 6.9831476,1.6157441 8.7185878,4.0337352 z "
     transform="scale(0.3) translate(-2.3,0)" />
</marker>
<marker
   inkscape:stockid="Arrow1Send"
   orient="auto"
   refY="0.0"
   refX="0.0"
   id="Arrow1Send"
   style="overflow:visible;"
   inkscape:isstock="true">
  <path
     id="path1141"
     d="M 0.0,0.0 L 5.0,-5.0 L -12.5,0.0 L 5.0,5.0 L 0.0,0.0 z "
     style="fill-rule:evenodd;stroke:#ff6600;stroke-width:1pt;stroke-opacity:1;fill:#ff6600;fill-opacity:1"
     transform="scale(0.2) rotate(180) translate(6,0)" />
</marker>
<marker
   inkscape:isstock="true"
   style="overflow:visible;"
   id="marker5794"
   refX="0.0"
   refY="0.0"
   orient="auto"
   inkscape:stockid="Arrow2Mend">
  <path
     transform="scale(0.6) rotate(180) translate(0,0)"
     d="M 8.7185878,4.0337352 L -2.2072895,0.016013256 L 8.7185884,-4.0017078 C 6.9730900,-1.6296469 6.9831476,1.6157441 8.7185878,4.0337352 z "
     style="fill-rule:evenodd;stroke-width:0.625;stroke-linejoin:round;stroke:#ff0000;stroke-opacity:1;fill:#ff0000;fill-opacity:1"
     id="path5792" />
</marker>
<marker
   inkscape:stockid="Arrow2Mend"
   orient="auto"
   refY="0.0"
   refX="0.0"
   id="marker5248"
   style="overflow:visible;"
   inkscape:isstock="true"
   inkscape:collect="always">
  <path
     id="path5246"
     style="fill-rule:evenodd;stroke-width:0.625;stroke-linejoin:round;stroke:#ff0000;stroke-opacity:1;fill:#ff0000;fill-opacity:1"
     d="M 8.7185878,4.0337352 L -2.2072895,0.016013256 L 8.7185884,-4.0017078 C 6.9730900,-1.6296469 6.9831476,1.6157441 8.7185878,4.0337352 z "
     transform="scale(0.6) rotate(180) translate(0,0)" />
</marker>
<marker
   inkscape:isstock="true"
   style="overflow:visible;"
   id="marker4852"
   refX="0.0"
   refY="0.0"
   orient="auto"
   inkscape:stockid="Arrow2Mend"
   inkscape:collect="always">
  <path
     transform="scale(0.6) rotate(180) translate(0,0)"
     d="M 8.7185878,4.0337352 L -2.2072895,0.016013256 L 8.7185884,-4.0017078 C 6.9730900,-1.6296469 6.9831476,1.6157441 8.7185878,4.0337352 z "
     style="fill-rule:evenodd;stroke-width:0.625;stroke-linejoin:round;stroke:#ff0000;stroke-opacity:1;fill:#ff0000;fill-opacity:1"
     id="path4850" />
</marker>
<marker
   inkscape:stockid="Arrow2Mend"
   orient="auto"
   refY="0.0"
   refX="0.0"
   id="Arrow2Mend"
   style="overflow:visible;"
   inkscape:isstock="true"
   inkscape:collect="always">
  <path
     id="path1153"
     style="fill-rule:evenodd;stroke-width:0.625;stroke-linejoin:round;stroke:#ff0000;stroke-opacity:1;fill:#ff0000;fill-opacity:1"
     d="M 8.7185878,4.0337352 L -2.2072895,0.016013256 L 8.7185884,-4.0017078 C 6.9730900,-1.6296469 6.9831476,1.6157441 8.7185878,4.0337352 z "
     transform="scale(0.6) rotate(180) translate(0,0)" />
</marker>
<marker
   inkscape:stockid="Arrow2Send"
   orient="auto"
   refY="0.0"
   refX="0.0"
   id="marker3234"
   style="overflow:visible;"
   inkscape:isstock="true">
  <path
     id="path3232"
     style="fill-rule:evenodd;stroke-width:0.625;stroke-linejoin:round;stroke:#ffffff;stroke-opacity:1;fill:#ffffff;fill-opacity:1"
     d="M 8.7185878,4.0337352 L -2.2072895,0.016013256 L 8.7185884,-4.0017078 C 6.9730900,-1.6296469 6.9831476,1.6157441 8.7185878,4.0337352 z "
     transform="scale(0.3) rotate(180) translate(-2.3,0)" />
</marker>
<marker
   inkscape:isstock="true"
   style="overflow:visible;"
   id="marker2412"
   refX="0.0"
   refY="0.0"
   orient="auto"
   inkscape:stockid="Arrow2Send"
   inkscape:collect="always">
  <path
     transform="scale(0.3) rotate(180) translate(-2.3,0)"
     d="M 8.7185878,4.0337352 L -2.2072895,0.016013256 L 8.7185884,-4.0017078 C 6.9730900,-1.6296469 6.9831476,1.6157441 8.7185878,4.0337352 z "
     style="fill-rule:evenodd;stroke-width:0.625;stroke-linejoin:round;stroke:#ffffff;stroke-opacity:1;fill:#ffffff;fill-opacity:1"
     id="path2410" />
</marker>
<marker
   inkscape:stockid="Arrow2Send"
   orient="auto"
   refY="0.0"
   refX="0.0"
   id="Arrow2Send"
   style="overflow:visible;"
   inkscape:isstock="true"
   inkscape:collect="always">
  <path
     id="path1159"
     style="fill-rule:evenodd;stroke-width:0.625;stroke-linejoin:round;stroke:#ffffff;stroke-opacity:1;fill:#ffffff;fill-opacity:1"
     d="M 8.7185878,4.0337352 L -2.2072895,0.016013256 L 8.7185884,-4.0017078 C 6.9730900,-1.6296469 6.9831476,1.6157441 8.7185878,4.0337352 z "
     transform="scale(0.3) rotate(180) translate(-2.3,0)" />
</marker>
<marker
   inkscape:isstock="true"
   style="overflow:visible;"
   id="marker1718"
   refX="0.0"
   refY="0.0"
   orient="auto"
   inkscape:stockid="Arrow2Send">
  <path
     transform="scale(0.3) rotate(180) translate(-2.3,0)"
     d="M 8.7185878,4.0337352 L -2.2072895,0.016013256 L 8.7185884,-4.0017078 C 6.9730900,-1.6296469 6.9831476,1.6157441 8.7185878,4.0337352 z "
     style="fill-rule:evenodd;stroke-width:0.625;stroke-linejoin:round;stroke:#ffffff;stroke-opacity:1;fill:#ffffff;fill-opacity:1"
     id="path1716" />
</marker>

	
	
	

	
	

	
	
	
	
	
	

	
	
	
	
	
	
</defs>
  <sodipodi:namedview
     id="base"
     pagecolor="#ffffff"
     bordercolor="#666666"
     borderopacity="1.0"
     inkscape:pageopacity="0.0"
     inkscape:pageshadow="2"
     inkscape:zoom="0.73825878"
     inkscape:cx="552.49488"
     inkscape:cy="256.93966"
     inkscape:document-units="mm"
     inkscape:current-layer="layer1"
     showgrid="false"
     inkscape:window-width="1920"
     inkscape:window-height="986"
     inkscape:window-x="-11"
     inkscape:window-y="1609"
     inkscape:window-maximized="1" />
  <metadata
     id="metadata5">
    <rdf:RDF>
      <cc:Work
         rdf:about="">
        <dc:format>image/svg+xml</dc:format>
        <dc:type
           rdf:resource="http://purl.org/dc/dcmitype/StillImage" />
        <dc:title />
      </cc:Work>
    </rdf:RDF>
  </metadata>
  <g
     inkscape:label="Layer 1"
     inkscape:groupmode="layer"
     id="layer1">
    <path
       style="fill:#010101;stroke-width:0.26458332"
       inkscape:connector-curvature="0"
       d="M 335.33159,316.70313"
       id="path815" />
    <path
       style="fill:#010101;stroke-width:0.26458332"
       inkscape:connector-curvature="0"
       d="M 334.3598,317.66196"
       id="path817" />
    <g
       id="g7402"
       inkscape:export-xdpi="500.60001"
       inkscape:export-ydpi="500.60001">
      <path
         style="fill:#008000;stroke-width:0.17839475"
         id="path855"
         d="m 88.132615,144.2251 c -0.695739,-0.53518 -1.480676,-0.96333 -2.319132,-1.2666 -1.088208,2.08721 -1.302282,4.60258 -0.392468,6.95739 0.570863,1.48068 1.516355,2.69376 2.69376,3.60358 0.69574,0.53518 1.480677,0.96333 2.301293,1.2666 1.088208,-2.06938 1.302282,-4.60259 0.392469,-6.9574 -0.570864,-1.48067 -1.516356,-2.69376 -2.675922,-3.60357 z"
         inkscape:connector-curvature="0" />
      <path
         style="fill:#008000;stroke-width:0.17839475"
         id="path857"
         d="m 110.87795,129.70376 c -1.08821,0.53519 -2.10506,1.19525 -3.03271,1.96235 -2.31914,1.92666 -4.08524,4.5669 -4.9237,7.68881 -0.10704,0.39247 -0.19623,0.78494 -0.26759,1.17741 -0.33895,1.8553 -0.32111,3.71061 0,5.47671 0.37463,2.05155 1.1774,3.97821 2.31913,5.6908 1.01685,-0.4995 1.98018,-1.10605 2.87216,-1.83747 2.08721,-1.67691 3.74628,-3.92468 4.70961,-6.58276 0.14272,-0.41032 0.28544,-0.82062 0.39248,-1.23093 0.83845,-3.10407 0.62438,-6.26165 -0.39248,-9.06245 -0.42814,-1.15957 -0.98116,-2.26562 -1.6769,-3.28247 z"
         inkscape:connector-curvature="0" />
      <path
         style="fill:#008000;stroke-width:0.17839475"
         id="path859"
         d="m 102.65395,125.54717 c 0.90981,0.74925 1.89098,1.37364 2.94351,1.89098 1.07037,-1.60555 1.83747,-3.40734 2.24778,-5.29832 0.42814,-2.01586 0.44598,-4.13876 0,-6.2795 -0.0535,-0.24975 -0.10704,-0.51734 -0.1784,-0.7671 -0.85629,-3.17542 -2.65808,-5.8335 -5.01289,-7.77801 -0.90982,-0.74926 -1.90883,-1.37364 -2.943515,-1.89098 -2.336972,3.49653 -3.228946,7.93856 -2.05154,12.34491 0.838455,3.17543 2.640245,5.85135 4.995055,7.77802 z"
         inkscape:connector-curvature="0" />
      <path
         style="fill:#008000;stroke-width:0.17839475"
         id="path861"
         d="m 112.21591,115.09323 c -0.82062,3.05055 -0.64222,6.15462 0.33894,8.93758 0.42815,1.21309 0.99902,2.35481 1.71259,3.40734 1.05254,-0.51734 2.0337,-1.14173 2.94352,-1.89098 2.35481,-1.92667 4.1566,-4.60259 5.01289,-7.77802 1.17741,-4.38851 0.28543,-8.84838 -2.05154,-12.34491 -1.05253,0.51734 -2.0337,1.14172 -2.96135,1.89098 -2.08722,1.71259 -3.72845,3.97821 -4.67394,6.67197 -0.10704,0.37463 -0.21407,0.74925 -0.32111,1.10604 z"
         inkscape:connector-curvature="0" />
      <path
         style="fill:#008000;stroke-width:0.17839475"
         id="path863"
         d="m 109.73622,108.52831 c 1.19525,-0.82062 2.15858,-1.94451 2.81863,-3.26463 0.39248,-0.83845 0.67791,-1.74827 0.78494,-2.7116 0.19624,-1.65907 -0.10703,-3.246783 -0.78494,-4.656103 -0.35678,-0.73142 -0.80277,-1.39148 -1.33795,-1.98018 -1.60556,1.10604 -2.8008,2.72944 -3.35383,4.673943 -0.12487,0.42815 -0.21407,0.8563 -0.26759,1.30228 -0.12487,1.12389 -0.0178,2.2121 0.26759,3.24679 0.35679,1.2666 0.99902,2.42617 1.87315,3.3895 z"
         inkscape:connector-curvature="0" />
      <path
         style="fill:#008000;stroke-width:0.17839475"
         id="path865"
         d="m 131.75013,112.41731 c 1.08821,-2.06938 1.32013,-4.60258 0.39247,-6.95739 -0.92765,-2.35481 -2.8008,-4.0674 -5.01289,-4.87018 -1.08821,2.08722 -1.30229,4.60258 -0.37463,6.97524 0.92765,2.35481 2.78296,4.0674 4.99505,4.85233 z"
         inkscape:connector-curvature="0" />
      <path
         style="fill:#008000;stroke-width:0.17839475"
         id="path867"
         d="m 86.830333,140.12202 c 0.463827,-0.42815 0.891974,-0.87414 1.302282,-1.3558 2.301293,-2.72944 3.657093,-6.29734 3.532217,-10.1685 -0.107037,-3.53222 -1.40932,-6.74332 -3.532217,-9.25869 -0.606542,-0.71358 -1.266603,-1.37364 -1.998021,-1.96234 -3.086229,2.88999 -4.959374,7.01091 -4.834498,11.54214 0.142716,4.53122 2.265613,8.54511 5.530237,11.20319 z"
         inkscape:connector-curvature="0" />
      <path
         style="fill:#008000;stroke-width:0.17839475"
         id="path869"
         d="m 94.162358,109.9733 c 0.124876,-2.51536 -0.874134,-4.83449 -2.568885,-6.45789 -1.837466,1.445 -3.068389,3.67494 -3.175426,6.17246 -0.142716,2.55105 0.874134,4.85234 2.568884,6.49357 1.837466,-1.445 3.06839,-3.67493 3.175427,-6.20814 z"
         inkscape:connector-curvature="0" />
      <path
         style="fill:#008000;stroke-width:0.17839475"
         id="path871"
         d="m 166.67982,146.7583 c -0.96333,1.55204 -1.64123,3.26463 -1.99802,5.04858 0.66006,0.23191 1.32012,0.4103 1.99802,0.55302 3.46086,0.69574 7.17147,0.17839 10.45393,-1.69475 1.92667,-1.10605 3.53222,-2.56888 4.74531,-4.26364 1.2666,-1.7661 2.14073,-3.78196 2.56888,-5.88702 -0.83846,-0.28543 -1.69475,-0.51735 -2.56888,-0.64222 -3.28247,-0.53519 -6.76116,0.0178 -9.90091,1.80179 -2.22994,1.24876 -4.03172,3.0327 -5.29833,5.08424 z"
         inkscape:connector-curvature="0" />
      <path
         style="fill:#008000;stroke-width:0.17839475"
         id="path873"
         d="m 74.011745,116.45888 c 1.01685,1.65907 2.568885,2.85432 4.317153,3.49654 1.088208,-2.06938 1.302282,-4.60259 0.392469,-6.9574 -0.874135,-2.26561 -2.640243,-3.90684 -4.709622,-4.7453 -0.0892,-0.0357 -0.196234,-0.0714 -0.303271,-0.10703 -1.088208,2.05153 -1.302282,4.58474 -0.392469,6.95739 0.214074,0.46383 0.445987,0.92765 0.69574,1.3558 z"
         inkscape:connector-curvature="0" />
      <path
         style="fill:#008000;stroke-width:0.17839475"
         id="path875"
         d="m 166.67982,159.42433 c -0.46382,0.21408 -0.92765,0.44599 -1.37364,0.69574 -0.32111,0.1784 -0.64222,0.37463 -0.92765,0.57086 -3.40734,2.28346 -5.61943,5.77999 -6.36869,9.56197 2.0337,0.71357 4.21011,0.98116 6.36869,0.78493 0.7671,-0.0714 1.55204,-0.19623 2.30129,-0.39247 1.28445,-0.33895 2.55105,-0.83845 3.76413,-1.5342 3.96036,-2.24777 6.49357,-6.02973 7.31419,-10.15066 -3.51438,-1.23092 -7.47474,-1.14172 -11.07832,0.46383 z"
         inkscape:connector-curvature="0" />
      <path
         style="fill:#008000;stroke-width:0.17839475"
         id="path877"
         d="m 128.03952,124.94062 c -1.1774,4.38852 -0.28543,8.84838 2.06938,12.34492 1.05253,-0.51734 2.0337,-1.14173 2.94352,-1.89098 2.37265,-1.92667 4.15659,-4.60259 5.01289,-7.76018 1.1774,-4.38851 0.28543,-8.84838 -2.05154,-12.34491 -1.05253,0.51734 -2.05154,1.15956 -2.96135,1.89098 -2.37266,1.92667 -4.1566,4.58475 -5.0129,7.76017 z"
         inkscape:connector-curvature="0" />
      <path
         style="fill:#008000;stroke-width:0.17839475"
         id="path879"
         d="m 166.67982,134.84153 c -0.92765,1.39148 -1.40932,3.03271 -1.40932,4.65611 0.46383,0.0713 0.92766,0.0892 1.40932,0.0713 1.89099,-0.0535 3.76413,-0.73141 5.28048,-2.06937 1.90883,-1.64124 2.87216,-3.99605 2.87216,-6.33302 -2.31913,-0.32111 -4.76314,0.33895 -6.67196,1.99802 -0.57087,0.49951 -1.07037,1.07037 -1.48068,1.67691 z"
         inkscape:connector-curvature="0" />
      <path
         style="fill:#008000;stroke-width:0.17839475"
         id="path881"
         d="m 179.31017,155.44613 c 0.7671,0.5887 1.64123,1.03469 2.56889,1.32012 1.33796,0.41031 2.78296,0.49951 4.22795,0.19624 2.47969,-0.49951 4.47771,-2.06939 5.61944,-4.10309 -1.85531,-1.40932 -4.29932,-2.05154 -6.79685,-1.53419 -1.12388,0.23191 -2.15857,0.6779 -3.06838,1.30228 -1.05253,0.73142 -1.92667,1.71259 -2.55105,2.81864 z"
         inkscape:connector-curvature="0" />
      <path
         style="fill:#008000;stroke-width:0.17839475"
         id="path883"
         d="m 145.7898,120.62347 c -1.83747,3.33598 -2.26561,7.15363 -1.445,10.66801 0.48167,-0.0357 0.96333,-0.10704 1.445,-0.19624 1.83747,-0.35679 3.62141,-1.03469 5.20913,-2.05154 1.58771,-0.99901 3.0327,-2.31913 4.19227,-3.94252 2.65808,-3.67493 3.42518,-8.15264 2.47969,-12.27356 -2.35481,0.21407 -4.63827,0.98117 -6.67196,2.24777 -1.58772,0.99902 -3.03272,2.31914 -4.21012,3.94253 -0.35679,0.51734 -0.69574,1.05253 -0.99901,1.60555 z"
         inkscape:connector-curvature="0" />
      <path
         style="fill:#008000;stroke-width:0.17839475"
         id="path885"
         d="m 164.37853,127.65222 c 0.78494,-0.0892 1.55204,-0.26759 2.30129,-0.5887 0.32111,-0.12487 0.62438,-0.28543 0.92765,-0.44598 2.2121,-1.24877 3.62142,-3.33599 4.10309,-5.63728 -1.60556,-0.57086 -3.35383,-0.66006 -5.03074,-0.19623 -0.64222,0.17839 -1.28444,0.42814 -1.89098,0.78493 -0.14272,0.0714 -0.28543,0.16056 -0.41031,0.24976 -1.98018,1.2666 -3.26462,3.22894 -3.71061,5.38752 1.17741,0.41031 2.44401,0.57086 3.71061,0.44598 z"
         inkscape:connector-curvature="0" />
      <path
         style="fill:#008000;stroke-width:0.17839475"
         id="path887"
         d="m 142.13271,115.77113 c 1.40932,-0.51734 2.69376,-1.42715 3.65709,-2.64024 0.53519,-0.66006 0.98117,-1.42716 1.30228,-2.26561 0.89197,-2.35481 0.66006,-4.88802 -0.42814,-6.9574 -0.28544,0.10704 -0.58871,0.23192 -0.8563,0.37463 -1.65907,0.82062 -3.03271,2.19426 -3.87117,3.96037 -0.0892,0.17839 -0.16055,0.37462 -0.23191,0.55302 -0.83845,2.21209 -0.69574,4.5669 0.23191,6.56493 0.0535,0.14271 0.12488,0.28543 0.19624,0.4103 z"
         inkscape:connector-curvature="0" />
      <path
         style="fill:#008000;stroke-width:0.17839475"
         id="path889"
         d="m 151.01677,136.44709 c -0.42815,0.35679 -0.83846,0.71357 -1.23093,1.12388 -2.0337,2.0337 -3.35382,4.51339 -3.9782,7.11795 -0.35679,1.51636 -0.48167,3.0684 -0.37463,4.60259 0.12488,0 0.24975,0.0179 0.37463,0.0179 1.76611,0.0714 3.53222,-0.16055 5.20913,-0.69573 2.24777,-0.71359 4.33498,-1.96235 6.11893,-3.74629 3.21111,-3.21111 4.6561,-7.52826 4.35283,-11.73838 -3.69276,-0.23191 -7.4569,0.87413 -10.47176,3.31814 z"
         inkscape:connector-curvature="0" />
      <path
         style="fill:#008000;stroke-width:0.17839475"
         id="path891"
         d="m 43.123618,134.12795 c 0.553023,0.41031 1.141726,0.7671 1.748268,1.01685 1.516356,0.66006 3.175427,0.83846 4.76314,0.58871 0.0892,-0.0178 0.178395,-0.0357 0.285432,-0.0535 -0.03568,-0.57087 -0.124877,-1.14173 -0.285432,-1.69475 -0.463826,-1.71259 -1.480677,-3.30031 -2.997032,-4.45987 -0.553023,-0.42815 -1.141726,-0.7671 -1.766108,-1.03469 -1.605553,-0.69574 -3.37166,-0.87414 -5.030732,-0.51735 0.142716,2.31913 1.266603,4.60259 3.282464,6.15462 z"
         inkscape:connector-curvature="0" />
      <path
         style="fill:#552200;stroke-width:0.17839475"
         id="path893"
         d="m 145.7898,188.93082 c 1.76611,-0.64222 3.51438,-1.24876 5.20913,-1.90882 5.19128,-1.98018 9.95442,-4.29931 13.36176,-8.45591 0.85629,-1.05253 1.64123,-2.2121 2.30129,-3.51438 0.53519,-1.01685 0.99901,-2.1229 1.40932,-3.33598 -0.44598,0.35679 -0.90981,0.69574 -1.40932,1.01685 -0.73141,0.48167 -1.49851,0.92765 -2.30129,1.3558 -3.74629,1.96234 -8.38455,3.4787 -13.36176,4.90586 -1.71259,0.48166 -3.46086,0.96333 -5.20913,1.46283 -1.12389,0.30327 -2.24777,0.62438 -3.37166,0.94549 0.96333,-1.69475 2.08722,-3.49653 3.37166,-5.31616 1.51636,-2.14074 3.24678,-4.28147 5.20913,-6.31517 2.08721,-2.15858 4.44202,-4.19228 7.08226,-5.92271 -2.33697,0.82062 -4.70962,2.10506 -7.08226,3.71061 -1.74827,1.19525 -3.49654,2.55105 -5.20913,4.03172 -1.30228,1.12389 -2.60456,2.31913 -3.87117,3.55006 -2.99703,2.92567 -5.81567,6.06542 -8.36671,9.06245 l -0.51734,0.19623 c -6.31518,2.3013 -12.02381,5.26265 -15.82362,9.70468 -1.30228,1.51635 -2.37265,3.19327 -3.17542,5.08425 -0.12488,-6.36869 1.0882,-11.7027 3.17542,-16.23392 3.4787,-7.5461 9.41924,-12.84442 15.82362,-16.84047 2.92567,-1.81962 5.95838,-3.3895 8.88405,-4.76313 1.32013,-0.62438 2.60457,-1.19525 3.87117,-1.74827 1.83747,-0.80278 3.58573,-1.55204 5.20913,-2.28346 5.85134,-2.58672 10.02577,-4.76314 10.02577,-7.74233 -2.99703,2.49752 -6.45788,3.71061 -10.02577,4.47771 -1.73043,0.37463 -3.49654,0.64222 -5.20913,0.90981 -1.32012,0.19624 -2.60456,0.39247 -3.87117,0.62439 -1.42716,0.26759 -2.81864,0.5887 -4.12092,1.01684 3.42518,-10.27553 4.63827,-14.93163 1.40932,-24.63631 0,12.43411 -1.53419,18.99904 -6.17245,24.42224 -1.10605,1.28444 -2.37266,2.49753 -3.85333,3.72845 -3.22895,2.65808 -7.81369,5.13777 -11.97029,8.52727 -1.65907,1.3558 -3.24679,2.85432 -4.67394,4.56691 -0.26759,0.32111 -0.53518,0.66006 -0.78494,0.999 0,-2.12289 0.28543,-4.13875 0.78494,-6.10109 0.98117,-3.88901 2.76512,-7.52826 4.67394,-11.18536 4.76314,-9.18732 10.1685,-18.49953 5.10209,-32.32513 -0.60654,8.38456 -2.67592,14.28942 -5.10209,19.10609 -1.51636,2.99703 -3.15759,5.56591 -4.67394,8.04559 -1.78395,2.92568 -3.37166,5.72648 -4.31716,8.93758 l -0.39246,-0.32111 c -2.0337,-1.64123 -3.76413,-3.24678 -5.19129,-4.81665 -8.919739,-9.74036 -7.242828,-18.51738 -5.334004,-32.00402 -11.256709,33.75229 5.280484,28.2042 5.280484,54.21416 -5.405361,-7.02875 -10.418253,-12.00596 -14.467815,-17.01886 -6.154619,-7.59962 -10.150661,-15.30627 -10.150661,-30.5055 -3.443019,17.12589 2.872155,26.56298 10.150661,36.76716 5.601596,7.83153 11.756215,16.0912 14.521335,28.59668 0.51734,2.33697 0.90981,4.81666 1.1774,7.4569 -0.39246,-0.44599 -0.78493,-0.89198 -1.1774,-1.32012 -4.780981,-5.29833 -9.490602,-9.31221 -14.521335,-12.84443 -0.820615,-0.57086 -1.641231,-1.14172 -2.479687,-1.69475 -4.656103,-8.9019 -5.44104,-19.24879 -13.415285,-27.7939 -0.588703,-0.62438 -1.213085,-1.24876 -1.890985,-1.85531 0.69574,1.0347 1.320122,2.06939 1.890985,3.10407 4.245795,7.77802 5.030732,15.71658 7.81369,22.99509 -2.479687,-1.49852 -5.066411,-2.99704 -7.81369,-4.58475 -1.908824,-1.10605 -3.889006,-2.24777 -5.958385,-3.46086 -3.621414,-2.12289 -7.51042,-4.44202 -11.720536,-7.11795 -1.195245,-0.76709 -2.408329,-1.55203 -3.657093,-2.37265 0.05351,2.19426 1.462838,4.26364 3.657093,6.2795 2.979192,2.76512 7.403383,5.45888 11.720536,8.33104 2.069379,1.37364 4.103079,2.78296 5.958385,4.28147 2.497526,1.99802 4.673942,4.12092 6.083261,6.44005 -1.123887,-0.37463 -3.264624,-0.87413 -6.083261,-1.40932 -1.766108,-0.33895 -3.781969,-0.6779 -5.958385,-1.01685 -3.585735,-0.53518 -7.617457,-1.01685 -11.720536,-1.33796 -1.641232,-0.12487 -3.282464,-0.23191 -4.905856,-0.30327 -1.605553,-0.0714 -3.211105,-0.10704 -4.76314,-0.0892 -6.529248,0.0357 -12.362756,0.78494 -15.680899,2.8008 -0.160555,0.10704 -0.32111,0.19623 -0.481666,0.30327 h 0.481666 c 5.351843,0.0179 10.614488,0.23191 15.680899,0.73142 1.605553,0.16055 3.193266,0.33895 4.76314,0.55302 1.659071,0.21407 3.300303,0.48167 4.905856,0.7671 4.103079,0.73142 8.027764,1.67691 11.720536,2.87215 2.069379,0.66007 4.049561,1.40932 5.958385,2.22994 6.297335,2.72944 11.702696,6.33301 15.912812,11.02479 3.603574,4.04957 6.315175,8.88406 7.920727,14.66405 1.070368,3.88901 1.409319,19.87318 -1.926663,24.63632 h 28.543161 c -2.7116,-3.74629 -4.87018,-14.41429 -5.44104,-20.78299 -0.16056,-1.81963 -0.19623,-3.28246 -0.0892,-4.13876 0.0357,-0.19623 0.0535,-0.39246 0.0892,-0.5887 2.22993,-15.34195 8.42023,-22.97725 15.82362,-27.6155 2.83647,-1.78396 5.85134,-3.13975 8.88405,-4.31716 1.28445,-0.57087 2.56889,-1.03469 3.85333,-1.49852 z"
         inkscape:connector-curvature="0" />
      <path
         style="fill:#008000;stroke-width:0.17839475"
         id="path895"
         d="m 143.97017,200.45512 c -0.62438,-0.60654 -1.30228,-1.12388 -2.05154,-1.49851 -1.39148,-0.73142 -2.96135,-1.05253 -4.49554,-0.94549 -0.16056,2.35481 0.64222,4.7453 2.444,6.52924 0.62438,0.62438 1.30229,1.12389 2.0337,1.49852 1.21309,0.64222 2.53321,0.96333 3.87117,0.96333 0.21407,0 0.41031,0 0.62438,-0.0179 0.0892,-1.30228 -0.12488,-2.60455 -0.62438,-3.81764 -0.39247,-0.98117 -0.99901,-1.90882 -1.80179,-2.7116 z"
         inkscape:connector-curvature="0" />
      <path
         style="fill:#008000;stroke-width:0.17839475"
         id="path897"
         d="m 45.188172,197.68356 c 0.142655,0.29641 0.302589,0.58878 0.501378,0.89039 0.946991,1.46404 2.276546,2.52715 3.764005,3.1686 0.670734,0.28284 1.394699,0.47994 2.115729,0.58612 0.113919,-0.37473 0.188948,-0.75871 0.246643,-1.13863 0.223573,-1.62799 -0.0058,-3.31473 -0.752418,-4.86227 -0.142645,-0.29641 -0.324027,-0.60209 -0.501378,-0.89039 -1.374112,-2.1153 -3.54813,-3.42062 -5.879724,-3.75472 -0.574641,1.92984 -0.421234,4.07414 0.505725,6.00089 z"
         inkscape:connector-curvature="0" />
      <path
         style="fill:#008000;stroke-width:0.17839475"
         id="path899"
         d="m 164.37853,193.14094 c -2.51536,-1.85531 -5.61943,-2.96136 -8.97326,-2.96136 -1.53419,0 -3.01486,0.23192 -4.40634,0.64223 -1.92667,0.5887 -3.69277,1.55203 -5.20913,2.80079 -0.64222,0.53519 -1.24877,1.1239 -1.78395,1.74828 0.55302,0.62438 1.14173,1.21308 1.78395,1.73043 1.51636,1.24876 3.28246,2.21209 5.20913,2.78295 1.39148,0.42815 2.87215,0.64223 4.40634,0.64223 3.35383,0 6.4579,-1.08821 8.97326,-2.94352 0.83845,-0.62438 1.62339,-1.32012 2.30129,-2.10506 l 0.10704,-0.12487 -0.10704,-0.12488 c -0.69574,-0.74926 -1.46284,-1.46284 -2.30129,-2.08722 z"
         inkscape:connector-curvature="0" />
      <path
         style="fill:#008000;stroke-width:0.17839475"
         id="path901"
         d="m 177.79382,196.19149 c -2.28346,-1.08821 -4.81666,-1.05253 -6.97524,-0.10704 0.64222,2.26562 2.21209,4.2458 4.49555,5.334 2.14074,1.01686 4.49555,1.05253 6.54709,0.28544 0.14271,-0.0535 0.28543,-0.10704 0.42814,-0.16056 -0.10703,-0.39246 -0.24975,-0.78494 -0.42814,-1.15956 -0.7671,-1.78395 -2.17642,-3.28246 -4.0674,-4.19228 z"
         inkscape:connector-curvature="0" />
      <path
         style="fill:#008000;stroke-width:0.17839475"
         id="path903"
         d="m 181.87906,171.60869 c -0.37463,-0.12487 -0.7671,-0.21407 -1.17741,-0.28543 -2.49753,-0.39247 -4.92369,0.35679 -6.72549,1.85531 1.26661,1.99801 3.31815,3.44302 5.83352,3.85332 0.69573,0.10704 1.39148,0.12488 2.06938,0.0714 1.73042,-0.16055 3.35381,-0.8563 4.63826,-1.92667 -1.03469,-1.65906 -2.65808,-2.94351 -4.63826,-3.56789 z"
         inkscape:connector-curvature="0" />
      <path
         style="fill:#008000;stroke-width:0.17839475"
         id="path905"
         d="m 185.41127,162.01106 c -1.30228,0.12487 -2.49752,0.55302 -3.53221,1.1774 -0.98117,0.60654 -1.83747,1.39148 -2.49753,2.31913 0.73142,0.69574 1.56987,1.24876 2.49753,1.64124 1.2666,0.53518 2.65808,0.76709 4.10307,0.62438 2.51537,-0.24976 4.67395,-1.60556 6.02975,-3.51438 -1.69475,-1.62339 -4.08524,-2.49753 -6.60061,-2.24777 z"
         inkscape:connector-curvature="0" />
      <circle
         r="9.9562988"
         cy="129.85855"
         cx="69.440788"
         id="circle6540"
         style="opacity:0.5;fill:#ffffff;fill-opacity:1;stroke:#ff6600;stroke-width:0.98260033;stroke-miterlimit:4;stroke-dasharray:none;stroke-dashoffset:0;stroke-opacity:1;paint-order:stroke fill markers" />
      <path
         style="fill:#008000;stroke-width:0.13672926"
         id="path907"
         d="m 70.646329,134.03723 c 1.593147,0.43269 3.242644,0.52138 4.835828,0.27042 0.243919,-0.0427 0.47471,-0.0815 0.71483,-0.13722 -0.200598,-2.34847 -1.091958,-4.6237 -2.644012,-6.47836 -0.5879,-0.69735 -1.26003,-1.34166 -2.021856,-1.90284 -1.182388,-0.88003 -2.487305,-1.49649 -3.83598,-1.87229 -1.824491,-0.4934 -3.731043,-0.53562 -5.546826,-0.12005 0.254151,3.21588 1.854275,6.30987 4.662039,8.36807 1.186217,0.89317 2.491128,1.5096 3.835983,1.87229 z"
         inkscape:connector-curvature="0" />
      <path
         style="fill:#008000;stroke-width:0.17839475"
         id="path909"
         d="m 174.27944,180.10028 c -2.9792,0.58871 -5.56592,1.99803 -7.59962,3.96036 -0.87413,0.8563 -1.65907,1.81963 -2.30129,2.87216 -0.0892,0.16056 -0.17839,0.30327 -0.26759,0.46383 0.0892,0.0714 0.17839,0.14271 0.26759,0.21407 0.73142,0.53518 1.49851,0.99901 2.30129,1.40932 2.87216,1.40932 6.20814,1.9445 9.59764,1.2666 2.06938,-0.41031 3.96036,-1.21308 5.6016,-2.33697 1.89098,-1.28444 3.44301,-2.97919 4.5669,-4.92369 -1.3558,-1.05253 -2.90783,-1.89099 -4.5669,-2.42617 -2.37265,-0.82062 -4.97722,-1.01685 -7.59962,-0.49951 z"
         inkscape:connector-curvature="0" />
      <circle
         style="opacity:0.5;fill:#ffffff;fill-opacity:1;stroke:#000000;stroke-width:1.02473354;stroke-miterlimit:4;stroke-dasharray:none;stroke-dashoffset:0;stroke-opacity:1;paint-order:stroke fill markers"
         id="circle1098"
         cx="30.363598"
         cy="198.20129"
         r="10.383217" />
      <path
         style="fill:#008000;stroke-width:0.14181638"
         id="path911"
         d="m 35.955603,192.40435 c -2.948691,-0.11607 -5.940617,0.81963 -8.358708,2.84431 -1.165477,0.97586 -2.090213,2.11942 -2.789683,3.36981 -0.950305,1.7189 -1.44849,3.63165 -1.45857,5.54192 1.939639,0.27775 3.935792,0.10198 5.817486,-0.55036 1.368492,-0.46268 2.676684,-1.18873 3.842159,-2.16459 2.418093,-2.02468 3.817338,-4.7842 4.167439,-7.64389 0.04405,-0.42462 0.07876,-0.85991 0.08239,-1.28762 -0.422754,-0.0522 -0.8564,-0.0954 -1.302515,-0.10958 z"
         inkscape:connector-curvature="0" />
      <path
         style="fill:#008000;stroke-width:0.17839475"
         id="path913"
         d="m 49.920458,126.72457 c 0.874134,2.2121 2.586724,3.87117 4.638263,4.70962 0.124877,0.0535 0.249753,0.0892 0.374629,0.14272 1.088208,-2.06938 1.302282,-4.60259 0.392469,-6.9574 -0.214074,-0.53518 -0.463826,-1.05253 -0.767098,-1.51635 -1.01685,-1.58772 -2.533205,-2.74728 -4.227955,-3.35382 -0.285432,0.55302 -0.517345,1.14172 -0.677901,1.7661 -0.374629,1.39148 -0.392468,2.89 0,4.335 0.05352,0.30327 0.142716,0.5887 0.267593,0.87413 z"
         inkscape:connector-curvature="0" />
      <path
         style="fill:#008000;stroke-width:0.17839475"
         id="path915"
         d="m 41.535905,150.59379 c 1.070368,0.73142 2.194255,1.30228 3.353821,1.73043 1.552034,0.57086 3.157587,0.87413 4.763139,0.92765 1.427159,0.0357 2.836477,-0.12487 4.210117,-0.46382 -0.374629,-3.28247 -1.819627,-6.42221 -4.210117,-8.86622 -0.677899,-0.6779 -1.409318,-1.30228 -2.229934,-1.87315 -0.802776,-0.55302 -1.659071,-1.01685 -2.533205,-1.40932 -3.139748,-1.37364 -6.600606,-1.60555 -9.793872,-0.78493 0.463826,4.19227 2.693761,8.17047 6.440051,10.73936 z"
         inkscape:connector-curvature="0" />
      <path
         style="fill:#008000;stroke-width:0.17839475"
         id="path917"
         d="m 54.540882,157.55118 c -0.107037,0.0179 -0.196234,0.0535 -0.303271,0.0714 0.07136,0.5887 0.160555,1.1774 0.303271,1.74826 0.820616,3.53222 2.925674,6.779 6.136779,8.9911 1.730429,1.19524 3.639254,1.98018 5.583757,2.37265 1.980181,0.39246 4.013882,0.39246 5.958385,0 0.267592,-0.0535 0.535184,-0.10704 0.784936,-0.17839 -0.142715,-1.15957 -0.410307,-2.28346 -0.784936,-3.37167 -1.03469,-2.88999 -2.943514,-5.49455 -5.655114,-7.3677 -0.107037,-0.0714 -0.196235,-0.14272 -0.303271,-0.19623 -3.585735,-2.35481 -7.813691,-2.9792 -11.720536,-2.06939 z"
         inkscape:connector-curvature="0" />
      <path
         style="fill:#008000;stroke-width:0.17839475"
         id="path919"
         d="m 29.190987,183.4541 c 0.178395,-0.23191 0.338951,-0.46383 0.481666,-0.71357 -0.160555,-0.12488 -0.321111,-0.24976 -0.481666,-0.35679 -1.766108,-1.23093 -3.996042,-1.76611 -6.279495,-1.3558 -2.497526,0.46382 -4.531227,1.96233 -5.726472,3.99604 1.837466,1.46284 4.263635,2.14073 6.761162,1.69475 2.194255,-0.41031 4.013881,-1.62339 5.244805,-3.26463 z"
         inkscape:connector-curvature="0" />
      <path
         style="fill:#008000;stroke-width:0.17839475"
         id="path921"
         d="m 63.228707,150.25484 c 0.945492,0.82062 1.962342,1.49851 3.032711,2.05154 1.873145,0.96333 3.906845,1.49851 5.958385,1.60555 0.99901,0.0535 2.01586,0.0179 2.997032,-0.12488 -0.01784,-3.17542 -1.03469,-6.35084 -2.997032,-8.99109 -0.642221,-0.8563 -1.37364,-1.65907 -2.212095,-2.37265 -1.159566,-0.99901 -2.426169,-1.80179 -3.74629,-2.39049 -2.622403,-1.15957 -5.494559,-1.55203 -8.277517,-1.15957 0.03568,4.19228 1.801787,8.38456 5.244806,11.38159 z"
         inkscape:connector-curvature="0" />
      <path
         style="fill:#008000;stroke-width:0.17839475"
         id="path923"
         d="m 26.193955,174.44517 c 1.052529,0.0892 2.05154,-0.0179 2.997032,-0.28543 1.355801,-0.39247 2.568885,-1.10605 3.550056,-2.06938 -0.891974,-1.21308 -2.122898,-2.19426 -3.550056,-2.8008 -0.784936,-0.32111 -1.641231,-0.53518 -2.551045,-0.60654 -2.497526,-0.21408 -4.870176,0.73141 -6.564927,2.37265 1.409319,1.87314 3.603575,3.17542 6.11894,3.3895 z"
         inkscape:connector-curvature="0" />
      <path
         style="fill:#008000;stroke-width:0.17839475"
         id="path925"
         d="m 46.941265,173.44616 c -0.695739,-0.16056 -1.373639,-0.28544 -2.051539,-0.35679 -3.710611,-0.39247 -7.314185,0.62438 -10.22202,2.65808 1.926664,3.74629 5.387522,6.67197 9.793872,7.77801 0.142716,0.0357 0.285432,0.0714 0.428148,0.10704 1.605552,0.33895 3.211105,0.42814 4.763139,0.26759 1.73043,-0.17839 3.389501,-0.64222 4.905856,-1.37364 0.767098,-0.37463 1.498516,-0.80278 2.194256,-1.28444 -0.588703,-1.15956 -1.337961,-2.22993 -2.194256,-3.19326 -1.355799,-1.49852 -3.014871,-2.74729 -4.905856,-3.63926 -0.874134,-0.39247 -1.766107,-0.71358 -2.7116,-0.96333 z"
         inkscape:connector-curvature="0" />
      <path
         style="fill:#008000;stroke-width:0.17839475"
         id="path927"
         d="m 32.919438,165.54327 c 3.639253,2.49753 7.974245,3.19327 11.952448,2.28345 0.124876,-0.0357 0.231913,-0.0535 0.35679,-0.0892 -0.07136,-0.66007 -0.196235,-1.32013 -0.35679,-1.96235 -0.856295,-3.44301 -2.925674,-6.61844 -6.083261,-8.77702 -2.925674,-2.01586 -6.315174,-2.85431 -9.597638,-2.64024 -0.927652,0.0535 -1.837466,0.21407 -2.72944,0.42815 0.285432,2.5332 1.213085,4.97721 2.72944,7.08227 0.999011,1.40932 2.247774,2.64024 3.728451,3.67493 z"
         inkscape:connector-curvature="0" />
      <circle
         r="12.347044"
         cy="231.97939"
         cx="107.13988"
         id="path1053"
         style="opacity:0.5;fill:#ffffff;fill-opacity:1;stroke:#000000;stroke-width:1.21854627;stroke-miterlimit:4;stroke-dasharray:none;stroke-dashoffset:0;stroke-opacity:1;paint-order:stroke fill markers" />
      <circle
         style="opacity:0.5;fill:#ffffff;fill-opacity:1;stroke:#000000;stroke-width:1.04158688;stroke-miterlimit:4;stroke-dasharray:none;stroke-dashoffset:0;stroke-opacity:1;paint-order:stroke fill markers"
         id="circle1057"
         cx="91.101997"
         cy="200.88921"
         r="10.553985" />
      <circle
         r="7.8217044"
         cy="192.46709"
         cx="66.381622"
         id="circle1059"
         style="opacity:0.5;fill:#ffffff;fill-opacity:1;stroke:#000000;stroke-width:0.77193445;stroke-miterlimit:4;stroke-dasharray:none;stroke-dashoffset:0;stroke-opacity:1;paint-order:stroke fill markers" />
      <text
         id="text1102"
         y="244.13771"
         x="58.596493"
         style="font-style:normal;font-weight:normal;font-size:4.23333311px;line-height:1.25;font-family:sans-serif;letter-spacing:0px;word-spacing:0px;fill:#000000;fill-opacity:1;stroke:none;stroke-width:0.26458332"
         xml:space="preserve"><tspan
           style="font-style:normal;font-variant:normal;font-weight:normal;font-stretch:normal;font-size:5.64444447px;font-family:Calibri;-inkscape-font-specification:Calibri;stroke-width:0.26458332"
           y="244.13771"
           x="58.596493"
           id="tspan1100"
           sodipodi:role="line">High School</tspan></text>
      <path
         inkscape:connector-curvature="0"
         id="path1104"
         d="m 87.625945,242.16658 7.775649,-4.48927"
         style="fill:none;stroke:#000000;stroke-width:0.26458332px;stroke-linecap:butt;stroke-linejoin:miter;stroke-opacity:1" />
      <text
         xml:space="preserve"
         style="font-style:normal;font-weight:normal;font-size:4.23333311px;line-height:1.25;font-family:sans-serif;letter-spacing:0px;word-spacing:0px;fill:#000000;fill-opacity:1;stroke:none;stroke-width:0.26458332"
         x="63.793121"
         y="224.06796"
         id="text1108"><tspan
           sodipodi:role="line"
           id="tspan1106"
           x="63.793121"
           y="224.06796"
           style="font-style:normal;font-variant:normal;font-weight:normal;font-stretch:normal;font-size:5.64444447px;font-family:Calibri;-inkscape-font-specification:Calibri;stroke-width:0.26458332">Bachelor</tspan></text>
      <path
         style="fill:none;stroke:#000000;stroke-width:0.26458332px;stroke-linecap:butt;stroke-linejoin:miter;stroke-opacity:1"
         d="m 84.772024,219.40814 3.090229,-8.42999"
         id="path1110"
         inkscape:connector-curvature="0" />
      <text
         id="text1114"
         y="213.84547"
         x="46.83947"
         style="font-style:normal;font-weight:normal;font-size:4.23333311px;line-height:1.25;font-family:sans-serif;letter-spacing:0px;word-spacing:0px;fill:#000000;fill-opacity:1;stroke:none;stroke-width:0.26458332"
         xml:space="preserve"><tspan
           style="font-style:normal;font-variant:normal;font-weight:normal;font-stretch:normal;font-size:5.64444447px;font-family:Calibri;-inkscape-font-specification:Calibri;stroke-width:0.26458332"
           y="213.84547"
           x="46.83947"
           id="tspan1112"
           sodipodi:role="line">Master</tspan></text>
      <path
         inkscape:connector-curvature="0"
         id="path1116"
         d="m 60.9392,208.65649 3.090229,-8.42999"
         style="fill:none;stroke:#000000;stroke-width:0.26458332px;stroke-linecap:butt;stroke-linejoin:miter;stroke-opacity:1" />
      <text
         xml:space="preserve"
         style="font-style:normal;font-weight:normal;font-size:4.23333311px;line-height:1.25;font-family:sans-serif;letter-spacing:0px;word-spacing:0px;fill:#000000;fill-opacity:1;stroke:none;stroke-width:0.26458332"
         x="24.655525"
         y="223.35962"
         id="text1120"><tspan
           sodipodi:role="line"
           id="tspan1118"
           x="24.655525"
           y="223.35962"
           style="font-style:normal;font-variant:normal;font-weight:bold;font-stretch:normal;font-size:5.64444447px;font-family:Calibri;-inkscape-font-specification:'Calibri Bold';stroke-width:0.26458332">PhD</tspan></text>
      <path
         style="fill:none;stroke:#000000;stroke-width:0.26458332px;stroke-linecap:butt;stroke-linejoin:miter;stroke-opacity:1"
         d="m 28.955002,217.60857 1.747795,-8.80679"
         id="path1122"
         inkscape:connector-curvature="0" />
      <path
         inkscape:connector-curvature="0"
         id="path2086"
         d="m 102.77852,218.00917 c -0.31373,-2.64022 -1.89264,-4.37096 -3.542195,-6.47391"
         style="fill:none;stroke:#ffffff;stroke-width:0.565;stroke-linecap:butt;stroke-linejoin:miter;stroke-miterlimit:4;stroke-dasharray:none;stroke-opacity:1;marker-end:url(#Arrow2Send)" />
      <path
         style="fill:none;stroke:#ffffff;stroke-width:0.40796569;stroke-linecap:butt;stroke-linejoin:miter;stroke-miterlimit:4;stroke-dasharray:none;stroke-opacity:1;marker-end:url(#marker2412)"
         d="M 80.206287,196.28029 C 79.029814,194.76319 77.4088,194.27961 75.605584,193.592"
         id="path2408"
         inkscape:connector-curvature="0" />
      <path
         inkscape:connector-curvature="0"
         id="path3230"
         d="m 56.95714,190.20293 c -4.879243,-0.89322 -10.138616,-0.88312 -16.125473,-0.98746"
         style="fill:none;stroke:#ffffff;stroke-width:0.35932913;stroke-linecap:butt;stroke-linejoin:miter;stroke-miterlimit:4;stroke-dasharray:none;stroke-opacity:1;marker-end:url(#marker3234)" />
      <path
         inkscape:connector-curvature="0"
         id="path4328"
         d="m 28.831769,226.46708 c 1.981849,11.95476 14.124216,17.15612 26.027037,15.94573"
         style="fill:none;stroke:#ff0000;stroke-width:0.53722614;stroke-linecap:butt;stroke-linejoin:miter;stroke-miterlimit:4;stroke-dasharray:none;stroke-opacity:1;marker-end:url(#Arrow2Mend)" />
      <path
         inkscape:connector-curvature="0"
         id="path4842"
         d="m 94.087007,228.59248 c -6.179085,-5.40549 -5.6589,-10.05413 -4.827674,-15.65305"
         style="fill:none;stroke:#ff0000;stroke-width:0.23580219;stroke-linecap:butt;stroke-linejoin:miter;stroke-miterlimit:4;stroke-dasharray:1.41481313, 0.47160437999999999;stroke-dashoffset:0;stroke-opacity:1;marker-end:url(#marker4852)" />
      <path
         style="fill:none;stroke:#ff0000;stroke-width:0.22864918;stroke-linecap:butt;stroke-linejoin:miter;stroke-miterlimit:4;stroke-dasharray:1.37189507, 0.45729836;stroke-dashoffset:0;stroke-opacity:1;marker-end:url(#marker5248)"
         d="m 81.974549,208.85885 c -7.68205,0.69251 -10.483587,-2.91488 -13.72431,-7.40715"
         id="path5244"
         inkscape:connector-curvature="0" />
      <path
         inkscape:connector-curvature="0"
         id="path5790"
         d="m 60.437491,199.33962 c -7.091975,8.44998 -12.706315,7.09659 -19.451325,5.16407"
         style="fill:none;stroke:#ff0000;stroke-width:0.217;stroke-linecap:butt;stroke-linejoin:miter;stroke-miterlimit:4;stroke-dasharray:1.302,0.434;stroke-dashoffset:0;stroke-opacity:1;marker-end:url(#marker5794)" />
      <path
         inkscape:connector-curvature="0"
         id="path6542"
         d="M 63.882663,141.53028 35.867045,185.50235"
         style="fill:none;stroke:#ff6600;stroke-width:1.17188907;stroke-linecap:butt;stroke-linejoin:miter;stroke-miterlimit:4;stroke-dasharray:none;stroke-opacity:1;marker-start:url(#Arrow2Sstart);marker-end:url(#Arrow1Send)" />
    </g>
    <g
       id="g1130"
       transform="matrix(0.82280929,0,0,1.1137578,16.585974,-29.380427)">
      <g
         transform="matrix(0.11312569,0,0,0.11312569,119.09051,191.39129)"
         id="g969">
	<polygon
   id="polygon957"
   points="262.274,43.389 241.376,59.063 262.274,74.736 341.419,74.736 341.419,43.389 "
   style="fill:#983300" />

	<polygon
   id="polygon959"
   points="262.274,122.164 241.376,137.838 262.274,153.511 341.419,153.511 341.419,122.164 "
   style="fill:#983300" />

	<polygon
   id="polygon961"
   points="262.274,200.939 241.376,216.613 262.274,232.286 341.419,232.286 341.419,200.939 "
   style="fill:#983300" />

	<polygon
   id="polygon963"
   points="262.274,279.713 241.376,295.386 262.274,311.06 341.419,311.06 341.419,279.713 "
   style="fill:#983300" />

	<polygon
   id="polygon965"
   points="262.274,358.488 241.376,374.161 262.274,389.835 341.419,389.835 341.419,358.488 "
   style="fill:#983300" />

	<polygon
   id="polygon967"
   points="262.274,437.263 241.376,452.936 262.274,468.61 341.419,468.61 341.419,437.263 "
   style="fill:#983300" />

</g>
      <g
         transform="matrix(0.11312569,0,0,0.11312569,119.09051,191.39129)"
         id="g983">
	<rect
   id="rect971"
   height="31.347"
   width="79.151001"
   style="fill:#d5681e"
   y="43.389"
   x="183.129" />

	<rect
   id="rect973"
   height="31.347"
   width="79.151001"
   style="fill:#d5681e"
   y="122.169"
   x="183.129" />

	<rect
   id="rect975"
   height="31.347"
   width="79.151001"
   style="fill:#d5681e"
   y="200.944"
   x="183.129" />

	<rect
   id="rect977"
   height="31.347"
   width="79.151001"
   style="fill:#d5681e"
   y="279.70901"
   x="183.129" />

	<rect
   id="rect979"
   height="31.347"
   width="79.151001"
   style="fill:#d5681e"
   y="358.48401"
   x="183.129" />

	<rect
   id="rect981"
   height="31.347"
   width="79.151001"
   style="fill:#d5681e"
   y="437.26901"
   x="183.129" />

</g>
      <rect
         id="rect985"
         height="57.920353"
         width="3.5461509"
         style="fill:#663300;stroke-width:0.11312569"
         y="191.3913"
         x="155.94087" />
      <rect
         id="rect987"
         height="57.920353"
         width="3.5461509"
         style="fill:#983300;stroke-width:0.11312569"
         y="191.3913"
         x="138.03397" />
    </g>
    <g
       id="g993"
       transform="matrix(0.11312569,0,0,0.11312569,108.50715,182.39546)">
	<path
   inkscape:connector-curvature="0"
   style="fill:#63c1ff"
   d="m 482.72,128.69 h -5.832 c 0,-26.51 -21.49,-48.002 -48.001,-48.002 -7.032,0 -13.703,1.527 -19.72,4.244 l -20.898,52.904 20.898,49.413 h 73.552 c 16.171,0 29.28,-13.109 29.28,-29.28 0,-16.171 -13.108,-29.279 -29.279,-29.279 z"
   id="path989" />

	<path
   inkscape:connector-curvature="0"
   style="fill:#63c1ff"
   d="m 214.767,249.571 h -7.1 c 0,-32.279 -26.167,-58.446 -58.446,-58.446 -8.562,0 -16.684,1.859 -24.011,5.167 l -20.898,67.719 20.898,56.864 h 57.918 31.641 c 19.69,0 35.652,-15.962 35.652,-35.652 -0.002,-19.689 -15.964,-35.652 -35.654,-35.652 z"
   id="path991" />

</g>
    <g
       id="g999"
       transform="matrix(0.11312569,0,0,0.11312569,108.50715,182.39546)">
	<path
   inkscape:connector-curvature="0"
   style="fill:#b7dbfb"
   d="m 392.212,97.725 c -4.777,-2.464 -10.192,-3.864 -15.938,-3.864 -19.236,0 -34.829,15.593 -34.829,34.829 h -5.832 c -16.171,0 -29.28,13.109 -29.28,29.28 0,16.171 13.109,29.28 29.28,29.28 h 73.552 V 84.932 c -6.568,2.967 -12.358,7.355 -16.953,12.793 z"
   id="path995" />

	<path
   inkscape:connector-curvature="0"
   style="fill:#b7dbfb"
   d="m 104.565,211.868 c -5.817,-3 -12.41,-4.704 -19.406,-4.704 -23.421,0 -42.407,18.987 -42.407,42.407 h -7.1 C 15.962,249.571 0,265.533 0,285.223 c 0,19.69 15.962,35.652 35.652,35.652 H 125.21 V 196.292 c -8,3.613 -15.05,8.955 -20.645,15.576 z"
   id="path997" />

</g>
    <g
       id="g1001"
       transform="matrix(0.11312569,0,0,0.11312569,119.09051,191.39129)">
</g>
    <g
       id="g1003"
       transform="matrix(0.11312569,0,0,0.11312569,119.09051,191.39129)">
</g>
    <g
       id="g1005"
       transform="matrix(0.11312569,0,0,0.11312569,119.09051,191.39129)">
</g>
    <g
       id="g1007"
       transform="matrix(0.11312569,0,0,0.11312569,119.09051,191.39129)">
</g>
    <g
       id="g1009"
       transform="matrix(0.11312569,0,0,0.11312569,119.09051,191.39129)">
</g>
    <g
       id="g1011"
       transform="matrix(0.11312569,0,0,0.11312569,119.09051,191.39129)">
</g>
    <g
       id="g1013"
       transform="matrix(0.11312569,0,0,0.11312569,119.09051,191.39129)">
</g>
    <g
       id="g1015"
       transform="matrix(0.11312569,0,0,0.11312569,119.09051,191.39129)">
</g>
    <g
       id="g1017"
       transform="matrix(0.11312569,0,0,0.11312569,119.09051,191.39129)">
</g>
    <g
       id="g1019"
       transform="matrix(0.11312569,0,0,0.11312569,119.09051,191.39129)">
</g>
    <g
       id="g1021"
       transform="matrix(0.11312569,0,0,0.11312569,119.09051,191.39129)">
</g>
    <g
       id="g1023"
       transform="matrix(0.11312569,0,0,0.11312569,119.09051,191.39129)">
</g>
    <g
       id="g1025"
       transform="matrix(0.11312569,0,0,0.11312569,119.09051,191.39129)">
</g>
    <g
       id="g1027"
       transform="matrix(0.11312569,0,0,0.11312569,119.09051,191.39129)">
</g>
    <g
       id="g1029"
       transform="matrix(0.11312569,0,0,0.11312569,119.09051,191.39129)">
</g>
    <polyline
       style="fill:#ffb92e"
       points="420.104,473.577 402.858,443.238 343.045,443.238 342.882,443.238 341.323,443.238   319.955,443.238 318.397,443.238 313.393,443.238 283.068,443.238 281.511,443.238 260.142,443.238 258.584,443.238 258.42,443.238   253.58,443.238 253.416,443.238 251.858,443.238 230.489,443.238 228.932,443.238 198.608,443.238 193.603,443.238 192.045,443.238   170.677,443.238 169.118,443.238 168.955,443.238 109.141,443.238 91.895,473.577 "
       id="polyline1140"
       transform="matrix(0.04234658,0,0,0.04234658,160.63288,226.56332)" />
    <path
       inkscape:connector-curvature="0"
       style="fill:#ef9a1d;stroke-width:0.04234659"
       d="m 165.93612,247.08566 c -0.0505,-0.0776 -0.0584,-0.17561 -0.0209,-0.26026 l 0.62932,-1.42077 c 0.0439,-0.0991 0.14199,-0.16295 0.25035,-0.16295 h -1.04986 c -0.10836,0 -0.20647,0.0638 -0.25034,0.16295 l -0.62927,1.42077 c -0.0375,0.0847 -0.0295,0.18264 0.0209,0.26026 0.0505,0.0777 0.13694,0.1245 0.22955,0.1245 h 1.04987 c -0.0927,-4e-5 -0.17909,-0.0469 -0.22961,-0.1245 z"
       id="path1142" />
    <path
       id="path1144"
       d="m 174.58908,246.61769 h -9.60327 -3.43854 c -0.31595,0 -0.57206,0.25611 -0.57206,0.57206 v 0.14059 c 0,0.31594 0.25611,0.57206 0.57206,0.57206 h 3.43854 12.97554 3.43855 c 0.31594,0 0.57206,-0.25612 0.57206,-0.57206 v -0.14059 c 0,-0.31595 -0.25612,-0.57206 -0.57206,-0.57206 h -3.43855 -2.18567"
       style="fill:#f28838;stroke-width:0.04234658"
       inkscape:connector-curvature="0" />
    <path
       id="path1146"
       d="m 174.94624,238.54739 h -0.53399 -5.87729 -3.43858 c -0.31595,0 -0.57206,0.25611 -0.57206,0.57206 v 0.14059 c 0,0.31595 0.25611,0.57206 0.57206,0.57206 h 3.43858 5.87729 3.43854 c 0.31595,0 0.57206,-0.25611 0.57206,-0.57206 v -0.14059 c 0,-0.31595 -0.25611,-0.57206 -0.57206,-0.57206 h -1.76357"
       style="fill:#f28838;stroke-width:0.04234658"
       inkscape:connector-curvature="0" />
    <path
       id="path1156-9"
       d="m 172.87494,241.01769 4.37347,-1.17962 h -2.12682 l -3.13864,0.84657 c 0.449,0.0547 0.78985,0.17968 0.89199,0.33305 z"
       style="fill:#ccc3a8;stroke-width:0.02397508"
       inkscape:connector-curvature="0" />
    <path
       id="path1158"
       d="m 171.98498,244.48696 3.13661,0.84598 h 0.0312 0.007 2.08879 l -4.37296,-1.17946 c -0.1015,0.15344 -0.44189,0.2785 -0.89055,0.33348 z"
       style="fill:#ccc3a8;stroke-width:0.02397508"
       inkscape:connector-curvature="0" />
    <path
       id="path1160"
       d="m 170.93987,243.63141 -3.87768,-1.04588 3.87565,-1.04533 c -0.44452,-0.0575 -0.77838,-0.18429 -0.8712,-0.33867 l -4.50868,1.21608 c -0.15461,0.0417 -0.24383,0.10316 -0.24383,0.16792 0,0.0648 0.0892,0.12624 0.24383,0.16794 l 4.50906,1.21618 c 0.0935,-0.15432 0.428,-0.28098 0.87285,-0.33824 z"
       style="fill:#ccc3a8;stroke-width:0.02397508"
       inkscape:connector-curvature="0" />
    <path
       id="path1162"
       d="m 170.07172,244.15348 -4.37296,1.17946 h 2.08879 0.007 0.0312 l 3.13657,-0.84598 c -0.44866,-0.055 -0.78905,-0.18005 -0.89051,-0.33348 z"
       style="fill:#ccc3a8;stroke-width:0.02397508"
       inkscape:connector-curvature="0" />
    <path
       id="path1164"
       d="m 170.96426,240.68464 -3.13864,-0.84657 h -2.12686 l 4.37338,1.17963 c 0.10227,-0.15338 0.44312,-0.27832 0.89212,-0.33306 z"
       style="fill:#ccc3a8;stroke-width:0.02397508"
       inkscape:connector-curvature="0" />
    <path
       id="path1166"
       d="m 177.38925,242.4176 -4.50864,-1.21607 c -0.0928,0.15438 -0.42668,0.28117 -0.87124,0.33866 l 3.87565,1.04533 -3.87764,1.04587 c 0.44485,0.0573 0.77926,0.18391 0.87289,0.33822 l 4.50902,-1.21617 c 0.15465,-0.0417 0.24388,-0.10316 0.24388,-0.16794 -9e-5,-0.0647 -0.0893,-0.12619 -0.24392,-0.1679 z"
       style="fill:#ccc3a8;stroke-width:0.02397508"
       inkscape:connector-curvature="0" />
    <g
       id="g1184"
       transform="matrix(0.08986259,0,0,0.08986259,158.18773,201.51882)">
</g>
    <g
       id="g1186"
       transform="matrix(0.08986259,0,0,0.08986259,158.18773,201.51882)">
</g>
    <g
       id="g1188"
       transform="matrix(0.08986259,0,0,0.08986259,158.18773,201.51882)">
</g>
    <g
       id="g1190"
       transform="matrix(0.08986259,0,0,0.08986259,158.18773,201.51882)">
</g>
    <g
       id="g1192"
       transform="matrix(0.08986259,0,0,0.08986259,158.18773,201.51882)">
</g>
    <g
       id="g1194"
       transform="matrix(0.08986259,0,0,0.08986259,158.18773,201.51882)">
</g>
    <g
       id="g1196"
       transform="matrix(0.08986259,0,0,0.08986259,158.18773,201.51882)">
</g>
    <g
       id="g1198"
       transform="matrix(0.08986259,0,0,0.08986259,158.18773,201.51882)">
</g>
    <g
       id="g1200"
       transform="matrix(0.08986259,0,0,0.08986259,158.18773,201.51882)">
</g>
    <g
       id="g1202"
       transform="matrix(0.08986259,0,0,0.08986259,158.18773,201.51882)">
</g>
    <g
       id="g1204"
       transform="matrix(0.08986259,0,0,0.08986259,158.18773,201.51882)">
</g>
    <g
       id="g1206"
       transform="matrix(0.08986259,0,0,0.08986259,158.18773,201.51882)">
</g>
    <g
       id="g1208"
       transform="matrix(0.08986259,0,0,0.08986259,158.18773,201.51882)">
</g>
    <g
       id="g1210"
       transform="matrix(0.08986259,0,0,0.08986259,158.18773,201.51882)">
</g>
    <g
       id="g1212"
       transform="matrix(0.08986259,0,0,0.08986259,158.18773,201.51882)">
</g>
    <circle
       r="0"
       style="fill:#231f20;stroke-width:0.05076079"
       cx="201.6738"
       cy="239.9857"
       id="ellipse1471" />
    <circle
       r="0"
       style="fill:#231f20;stroke-width:0.05076079"
       cx="201.6738"
       cy="228.97762"
       id="ellipse1473" />
    <polyline
       transform="matrix(0.04234658,0,0,0.04234658,184.44553,226.56332)"
       id="polyline1523"
       points="420.104,473.577 402.858,443.238 343.045,443.238 342.882,443.238 341.323,443.238   319.955,443.238 318.397,443.238 313.393,443.238 283.068,443.238 281.511,443.238 260.142,443.238 258.584,443.238 258.42,443.238   253.58,443.238 253.416,443.238 251.858,443.238 230.489,443.238 228.932,443.238 198.608,443.238 193.603,443.238 192.045,443.238   170.677,443.238 169.118,443.238 168.955,443.238 109.141,443.238 91.895,473.577 "
       style="fill:#ffb92e" />
    <path
       inkscape:connector-curvature="0"
       style="fill:#f28838;stroke-width:0.04234658"
       d="m 198.40173,246.61769 h -9.60327 -3.43854 c -0.31595,0 -0.57206,0.25611 -0.57206,0.57206 v 0.14059 c 0,0.31594 0.25611,0.57206 0.57206,0.57206 h 3.43854 12.97554 3.43855 c 0.31594,0 0.57206,-0.25612 0.57206,-0.57206 v -0.14059 c 0,-0.31595 -0.25612,-0.57206 -0.57206,-0.57206 h -3.43855 -2.18567"
       id="path1527" />
    <path
       inkscape:connector-curvature="0"
       style="fill:#f28838;stroke-width:0.04234658"
       d="m 198.75889,185.63039 h -0.53399 -5.87729 -3.43858 c -0.31595,0 -0.57206,0.25611 -0.57206,0.57206 v 0.14059 c 0,0.31595 0.25611,0.57206 0.57206,0.57206 h 3.43858 5.87729 3.43854 c 0.31595,0 0.57206,-0.25611 0.57206,-0.57206 v -0.14059 c 0,-0.31595 -0.25611,-0.57206 -0.57206,-0.57206 h -1.76357"
       id="path1529" />
    <path
       inkscape:connector-curvature="0"
       style="fill:#ccc3a8;stroke-width:0.07810908"
       d="m 196.68759,199.53047 4.37347,-12.52058 h -2.12682 l -3.13864,8.98559 c 0.449,0.58104 0.78985,1.9071 0.89199,3.53499 z"
       id="path1537" />
    <path
       inkscape:connector-curvature="0"
       style="fill:#ccc3a8;stroke-width:0.07810908"
       d="m 195.79763,236.35369 3.13661,8.97924 h 0.0312 0.007 2.08879 l -4.37296,-12.51885 c -0.1015,1.62861 -0.44189,2.95596 -0.89055,3.53961 z"
       id="path1539" />
    <path
       inkscape:connector-curvature="0"
       style="fill:#ccc3a8;stroke-width:0.07810908"
       d="m 194.75252,227.27272 -3.87768,-11.10102 3.87565,-11.09526 c -0.44452,-0.6103 -0.77838,-1.95609 -0.8712,-3.59464 l -4.50868,12.90756 c -0.15461,0.44274 -0.24383,1.09496 -0.24383,1.78234 0,0.68752 0.0892,1.33988 0.24383,1.78248 l 4.50906,12.90871 c 0.0935,-1.63797 0.428,-2.98232 0.87285,-3.59017 z"
       id="path1541" />
    <path
       inkscape:connector-curvature="0"
       style="fill:#ccc3a8;stroke-width:0.07810908"
       d="m 193.88437,232.81408 -4.37296,12.51885 h 2.08879 0.007 0.0312 l 3.13657,-8.97924 c -0.44866,-0.58365 -0.78905,-1.91114 -0.89051,-3.53961 z"
       id="path1543" />
    <path
       inkscape:connector-curvature="0"
       style="fill:#ccc3a8;stroke-width:0.07810908"
       d="m 194.77691,195.99548 -3.13864,-8.98559 h -2.12686 l 4.37338,12.52072 c 0.10227,-1.62803 0.44312,-2.95409 0.89212,-3.53513 z"
       id="path1545" />
    <path
       inkscape:connector-curvature="0"
       style="fill:#ccc3a8;stroke-width:0.07810908"
       d="m 201.2019,214.38922 -4.50864,-12.90742 c -0.0928,1.63855 -0.42668,2.98434 -0.87124,3.5945 l 3.87565,11.09525 -3.87764,11.10103 c 0.44485,0.60784 0.77926,1.95205 0.87289,3.58988 l 4.50902,-12.90857 c 0.15465,-0.44259 0.24388,-1.09496 0.24388,-1.78248 -9e-5,-0.68723 -0.0893,-1.33945 -0.24392,-1.78219 z"
       id="path1547" />
    <circle
       r="0"
       style="fill:#231f20;stroke-width:0.04234659"
       cx="195.2858"
       cy="241.35464"
       id="ellipse1557" />
    <circle
       r="0"
       style="fill:#231f20;stroke-width:0.04234659"
       cx="195.2858"
       cy="232.17128"
       id="ellipse1559" />
  </g>
</svg>
